<svg width="43" height="43" viewBox="0 0 43 43" fill="none" xmlns="http://www.w3.org/2000/svg">
<path d="M35.0106 0.390015H8.37938C3.96698 0.390015 0.390015 3.96698 0.390015 8.37938V35.0106C0.390015 39.423 3.96698 43 8.37938 43H35.0106C39.423 43 43 39.423 43 35.0106V8.37938C43 3.96698 39.423 0.390015 35.0106 0.390015Z" fill="#42CCAC"/>
<path fill-rule="evenodd" clip-rule="evenodd" d="M31.3597 22.8367V31.1908H23.0058V34.5603H31.3597H34.7293V31.1908V22.8367H31.3597Z" fill="white"/>
<path fill-rule="evenodd" clip-rule="evenodd" d="M8.64337 8.81369V12.1832V20.5372H12.0128V12.1832H20.3669V8.81369H12.0128H8.64337Z" fill="white"/>
<path d="M19.9451 23.1107C19.9451 24.7055 20.5117 25.8806 21.8335 25.8806C22.9246 25.8806 23.701 25.2721 24.7082 24.034L25.1067 24.4117C24.0997 26.0693 22.5679 27.4543 20.5955 27.4543C18.3713 27.4543 17.0704 25.8386 17.0704 23.5724C17.0704 19.8163 20.0079 15.9136 23.68 15.9136C25.2538 15.9136 26.3029 16.564 26.3029 17.8231C26.3029 18.6624 25.7573 19.1869 24.939 19.3758H24.3304C24.4354 17.9068 24.2676 16.648 23.2183 16.648C21.4348 16.648 19.9451 20.2991 19.9451 23.1107Z" fill="white"/>
</svg>
